<svg fill="#a9b0bc" height="48" viewBox="0 0 1024 1024" width="48" xmlns="http://www.w3.org/2000/svg"><path d="m511.034511 919.119301c-56.107879 0-110.546745-10.993378-161.805176-32.674167-49.501414-20.936845-93.952812-50.906413-132.122133-89.075735-38.168298-38.168298-68.137867-82.620719-89.074711-132.12111-21.680788-51.259454-32.674167-105.698321-32.674167-161.806199 0-56.107879 10.993378-110.546745 32.674167-161.806199 20.936845-49.500391 50.906413-93.952812 89.074711-132.12111 38.169321-38.168298 82.620719-68.137867 132.122133-89.074711 51.258431-21.680788 105.698321-32.673144 161.805176-32.673144 56.107879 0 110.546745 10.993378 161.805176 32.673144 49.501414 20.936845 93.952812 50.906413 132.122133 89.074711 38.168298 38.168298 68.137867 82.620719 89.074711 132.12111 21.681812 51.259454 32.674167 105.698321 32.674167 161.806199 0 56.107879-10.992355 110.546745-32.674167 161.806199-20.936845 49.500391-50.906413 93.952812-89.074711 132.12111-38.169321 38.169321-82.620719 68.13889-132.12111 89.075735-51.259454 21.680789-105.698321 32.674167-161.806199 32.674167zm0-793.491069c-208.327746 0-377.812835 169.486112-377.812835 377.813858s169.486112 377.813858 377.812835 377.813858c208.327746 0 377.813858-169.487136 377.813858-377.813858s-169.486113-377.813858-377.813858-377.813858z"/><path d="m441.79045 323.709613h37.708833v255.262708h-37.708833z"/><path d="m441.79045 541.263487h255.262708v37.708833h-255.262708z"/></svg>