<svg height="67" viewBox="0 0 99 67" width="99" xmlns="http://www.w3.org/2000/svg" xmlns:xlink="http://www.w3.org/1999/xlink"><linearGradient id="a" x1="100%" x2="38.104197%" y1="100%" y2="38.104197%"><stop offset="0" stop-color="#ffc83e"/><stop offset="1" stop-color="#fa709a"/></linearGradient><path d="m0 3.18261719h8.296875v16.73779301h10.7134323v8.0664062h-10.7134323v16.737793h-8.296875zm38.7724609 32.48472951v-32.42711232h-8.296875v41.48437502h8.296875v-.4808813c.5098385-1.7528686 1.5590094-2.6292906 3.1475391-2.6292906.8506709 0 1.5563305.270664 2.117.812s.841 1.2566622.841 2.146c0 1.1600058-.4349957 2.3006611-1.305 3.422-.8700044 1.1213389-2.474655 2.6099907-4.814 4.466s-4.272659 3.9633215-5.8 6.322-2.291 4.8139872-2.291 7.366h22.736v-6.322h-12.528c.4640023-.8506709 1.797989-2.1459913 4.002-3.886 3.0933488-2.4360122 5.1813279-4.417659 6.264-5.945s1.624-3.2963233 1.624-5.307c0-2.8226808-.9376573-5.0943247-2.813-6.815s-4.3983175-2.581-7.569-2.581c-1.3127522 0-2.5165982.1249695-3.6115391.3749092zm35.1669922-35.6673467h.3320313c7.3489951 0 13.6243229 3.01038656 18.8261718 9.03125 3.3646002 4.5156476 5.046875 9.4296609 5.046875 14.7421875v.3320313c0 7.348995-3.0767921 13.5911201-9.2304687 18.7265624-4.4713765 3.3203292-9.3743223 4.9804688-14.7089844 4.9804688h-.3320312c-7.304724 0-13.5579167-2.9882514-18.7597657-8.9648438-1.8151132-2.5455856-3.0878869-4.8808487-3.8183593-7.0058593-.8632856-2.6562633-1.2949219-5.2571488-1.2949219-7.8027344v-.3320313c0-7.2161819 2.9771838-13.3919014 8.9316406-18.5273437 4.028666-2.87761855 7.7031084-4.49348781 11.0234375-4.84765625 1.0182343-.22135527 2.346346-.33203125 3.984375-.33203125zm-14.3769531 23.8398438c0 4.1614791 1.6269369 7.8137863 4.8808594 10.9570312 2.8997541 2.4791791 5.9433434 3.71875 9.1308594 3.71875h.9296874c2.5677212 0 5.1796743-.8743402 7.8359376-2.6230469 2.7448053-2.014333 4.6041617-4.5820156 5.578125-7.703125.3098973-.8190145.5312493-2.2245994.6640624-4.2167969 0-4.072937-1.5826664-7.6699062-4.7480468-10.7910156-2.9661607-2.6341277-6.2200344-3.95117185-9.7617188-3.95117185-4.1393436 0-7.813786 1.72654525-11.0234375 5.17968745-1.3502671 1.7708422-2.2024722 3.2760355-2.5566406 4.515625-.6197948 1.7265712-.9296875 3.3645756-.9296875 4.9140626z" fill="url(#a)" fill-rule="evenodd"/></svg>