<?xml version="1.0" standalone="no"?><!DOCTYPE svg PUBLIC "-//W3C//DTD SVG 1.1//EN" "http://www.w3.org/Graphics/SVG/1.1/DTD/svg11.dtd"><svg class="icon" width="200px" height="169.26px" viewBox="0 0 1210 1024" version="1.1" xmlns="http://www.w3.org/2000/svg"><path d="M683.998588 815.939135c-12.388878 4.778854-25.038786 8.674223-38.070199 11.806581-21.364289 5.14028-43.451429 7.951371-65.899996 8.332876-166.537041 2.770932-303.698184-128.848347-306.449037-293.919605-2.750853-165.111416 129.992862-301.188282 296.529903-303.959214s303.718263 128.868426 306.469116 293.959763c1.385466 83.569709-32.106671 162.199929-91.440762 219.385545-8.23248 7.871054-8.413193 20.902467-0.421664 29.05463 7.97145 8.091925 21.08318 8.292717 29.29558 0.361426 67.385858-64.896035 105.556453-154.409193 103.990274-249.504373-3.112279-187.780854-159.208126-337.451351-348.575238-334.298914-189.387192 3.132358-340.402996 157.923056-337.290717 345.663752 3.112279 187.780854 159.188047 337.431272 348.575238 334.278834 25.520687-0.421664 50.559473-3.614259 74.915565-9.457312 14.778305-3.513863 29.275501-7.991529 43.330954-13.412918 10.662065-4.096161 15.962979-16.023217 11.82666-26.584886C706.708185 817.08365 694.660653 811.863053 683.998588 815.939135z" fill="#1296db" /><path d="M737.429389 789.07314c-4.015844 2.550061-8.152163 4.979646-12.469195 7.469469-9.899055 5.64226-13.232205 18.25201-7.569865 28.030589 5.722577 9.858896 18.392564 13.232205 28.291619 7.509628 4.839092-2.750853 9.477391-5.521785 14.035374-8.413193 9.617946-6.063924 12.429036-18.77407 6.304875-28.371936C759.857877 785.820307 747.047335 782.989137 737.429389 789.07314z" fill="#1296db" /><path d="M571.394329 299.140202c-5.381231 0.321268-10.822699 0.421664-16.424801 0.50198-13.051492 0.160634-23.291894 10.762461-23.071022 23.65332 0.26103 12.951096 10.983333 23.291894 23.89427 23.13126 6.284795-0.060238 12.449116-0.281109 18.593357-0.602377 12.931017-0.682693 22.769834-11.726264 21.986745-24.657281C595.509471 308.316405 584.365505 298.41735 571.394329 299.140202z" fill="#1296db" /><path d="M377.228283 497.482725c13.051492-65.859838 61.020746-120.274521 126.71995-140.996274 12.388878-3.915448 19.255971-17.107494 15.400761-29.375897-3.875289-12.308561-17.107494-19.095337-29.496372-15.179889-82.304718 25.96243-142.522295 94.191615-158.826621 176.757363-2.489823 12.710145 5.802894 24.918311 18.553198 27.367975C362.369662 518.485588 374.73846 510.172791 377.228283 497.482725" fill="#1296db" /><path d="M155.292678 784.254128c-17.649633-39.857249 1.626417-74.875407 59.534884-123.808463 8.694302-7.268677 22.006824-5.14028 28.974313 3.835131 6.887172 8.975411 5.100122 21.826111-3.915448 28.7936-56.402526 43.250637-57.848229 62.928272-46.925134 74.353347 30.158987 31.504294 264.905134-49.174007 420.960822-119.872936 195.009373-88.268246 384.215852-237.697792 370.38127-271.189929-6.104083-14.758226-16.063375-28.110906-86.260324-17.067336-11.083729 1.746892-21.866269-5.863132-23.613161-17.147653-1.746892-11.06365 5.822973-22.227695 17.187811-23.352131 75.517942-8.413193 123.286403 5.582023 131.579121 48.370838 10.682144 55.017059-67.265383 149.309071-387.810032 315.324052C193.684144 885.21244 155.292678 784.254128 155.292678 784.254128z" fill="#1296db" /><path d="M842.503941 118.889054c-21.043021 0-38.170595 17.147653-38.170595 38.170595 0 21.08318 17.147653 38.190674 38.170595 38.190674 21.063101 0 38.190674-17.107494 38.190674-38.190674C880.694615 136.036707 863.567042 118.889054 842.503941 118.889054zM842.503941 178.283384c-11.706185 0-21.203655-9.51755-21.203655-21.223734 0-11.706185 9.49747-21.203655 21.203655-21.203655s21.223734 9.49747 21.223734 21.203655C863.727676 168.785913 854.210126 178.283384 842.503941 178.283384z" fill="#1296db" /></svg>